<svg xmlns="http://www.w3.org/2000/svg" xmlns:xlink="http://www.w3.org/1999/xlink" xmlns:s="https://github.com/nturley/netlistsvg" width="618" height="387">
  <style>svg {
    stroke:#000;
    fill:none;
  }
  text {
    fill:#000;
    stroke:none;
    font-size:10px;
    font-weight: bold;
    font-family: "Courier New", monospace;
  }
  .nodelabel {
    text-anchor: middle;
  }
  .inputPortLabel {
    text-anchor: end;
  }
  .splitjoinBody {
    fill:#000;
  }</style>
  <g s:type="inputExt" transform="translate(277,240)" s:width="30" s:height="20">
    <text x="15" y="-4" class="nodelabel" s:attribute="ref">clock</text>
    <s:alias val="$_inputExt_"/>
    <path d="M0,0 L0,20 L15,20 L30,10 L15,0 Z"/>
    <g s:x="28" s:y="10" s:pid="Y"/>
  </g>
  <g s:type="inputExt" transform="translate(12,200)" s:width="30" s:height="20">
    <text x="15" y="-4" class="nodelabel" s:attribute="ref">in1</text>
    <s:alias val="$_inputExt_"/>
    <path d="M0,0 L0,20 L15,20 L30,10 L15,0 Z"/>
    <g s:x="28" s:y="10" s:pid="Y"/>
  </g>
  <g s:type="inputExt" transform="translate(93,287)" s:width="30" s:height="20">
    <text x="15" y="-4" class="nodelabel" s:attribute="ref">in2</text>
    <s:alias val="$_inputExt_"/>
    <path d="M0,0 L0,20 L15,20 L30,10 L15,0 Z"/>
    <g s:x="28" s:y="10" s:pid="Y"/>
  </g>
  <g s:type="inputExt" transform="translate(203,355)" s:width="30" s:height="20">
    <text x="15" y="-4" class="nodelabel" s:attribute="ref">in3</text>
    <s:alias val="$_inputExt_"/>
    <path d="M0,0 L0,20 L15,20 L30,10 L15,0 Z"/>
    <g s:x="28" s:y="10" s:pid="Y"/>
  </g>
  <g s:type="inputExt" transform="translate(357,174)" s:width="30" s:height="20">
    <text x="15" y="-4" class="nodelabel" s:attribute="ref">in4</text>
    <s:alias val="$_inputExt_"/>
    <path d="M0,0 L0,20 L15,20 L30,10 L15,0 Z"/>
    <g s:x="28" s:y="10" s:pid="Y"/>
  </g>
  <g s:type="inputExt" transform="translate(277,150)" s:width="30" s:height="20">
    <text x="15" y="-4" class="nodelabel" s:attribute="ref">in5</text>
    <s:alias val="$_inputExt_"/>
    <path d="M0,0 L0,20 L15,20 L30,10 L15,0 Z"/>
    <g s:x="28" s:y="10" s:pid="Y"/>
  </g>
  <g s:type="inputExt" transform="translate(277,91)" s:width="30" s:height="20">
    <text x="15" y="-4" class="nodelabel" s:attribute="ref">in6</text>
    <s:alias val="$_inputExt_"/>
    <path d="M0,0 L0,20 L15,20 L30,10 L15,0 Z"/>
    <g s:x="28" s:y="10" s:pid="Y"/>
  </g>
  <g s:type="inputExt" transform="translate(277,32)" s:width="30" s:height="20">
    <text x="15" y="-4" class="nodelabel" s:attribute="ref">in7</text>
    <s:alias val="$_inputExt_"/>
    <path d="M0,0 L0,20 L15,20 L30,10 L15,0 Z"/>
    <g s:x="28" s:y="10" s:pid="Y"/>
  </g>
  <g s:type="outputExt" transform="translate(564,217.5)" s:width="30" s:height="20">
    <text x="15" y="-4" class="nodelabel" s:attribute="ref">out1</text>
    <s:alias val="$_outputExt_"/>
    <path d="M30,0 L30,20 L15,20 L0,10 L15,0 Z"/>
    <g s:x="0" s:y="10" s:pid="A"/>
  </g>
  <g s:type="outputExt" transform="translate(564,305)" s:width="30" s:height="20">
    <text x="15" y="-4" class="nodelabel" s:attribute="ref">out2</text>
    <s:alias val="$_outputExt_"/>
    <path d="M30,0 L30,20 L15,20 L0,10 L15,0 Z"/>
    <g s:x="0" s:y="10" s:pid="A"/>
  </g>
  <g s:type="outputExt" transform="translate(564,32)" s:width="30" s:height="20">
    <text x="15" y="-4" class="nodelabel" s:attribute="ref">out3</text>
    <s:alias val="$_outputExt_"/>
    <path d="M30,0 L30,20 L15,20 L0,10 L15,0 Z"/>
    <g s:x="0" s:y="10" s:pid="A"/>
  </g>
  <g s:type="generic" transform="translate(93,225)" s:width="30" s:height="40">
    <text x="15" y="-4" class="nodelabel" s:attribute="ref">$logic_not</text>
    <rect width="30" height="20" s:generic="body"/>
    <g transform="translate(0,10)" s:x="0" s:y="10" s:pid="in0">
      <text x="-3" y="-4" class="inputPortLabel">A</text>
    </g>
    <g transform="translate(30,10)" s:x="30" s:y="10" s:pid="out0">
      <text x="5" y="-4" style="fill:#000; stroke:none">Y</text>
    </g>
  </g>
  <g s:type="dff" transform="translate(499,217.5)" s:width="30" s:height="40">
    <s:alias val="$dff"/>
    <s:alias val="$_DFF_"/>
    <rect width="30" height="40" x="0" y="0"/>
    <path d="M0,35 L5,30 L0,25"/>
    <g s:x="30" s:y="10" s:pid="Q"/>
    <g s:x="0" s:y="30" s:pid="CLK"/>
    <g s:x="0" s:y="10" s:pid="D"/>
  </g>
  <g s:type="dff" transform="translate(359.25,305)" s:width="30" s:height="40">
    <s:alias val="$dff"/>
    <s:alias val="$_DFF_"/>
    <rect width="30" height="40" x="0" y="0"/>
    <path d="M0,35 L5,30 L0,25"/>
    <g s:x="30" s:y="10" s:pid="Q"/>
    <g s:x="0" s:y="30" s:pid="CLK"/>
    <g s:x="0" s:y="10" s:pid="D"/>
  </g>
  <g s:type="dff" transform="translate(499,32)" s:width="30" s:height="40">
    <s:alias val="$dff"/>
    <s:alias val="$_DFF_"/>
    <rect width="30" height="40" x="0" y="0"/>
    <path d="M0,35 L5,30 L0,25"/>
    <g s:x="30" s:y="10" s:pid="Q"/>
    <g s:x="0" s:y="30" s:pid="CLK"/>
    <g s:x="0" s:y="10" s:pid="D"/>
  </g>
  <g s:type="mux" transform="translate(363.3333333333333,32)" s:width="20" s:height="40">
    <s:alias val="$pmux"/>
    <s:alias val="$mux"/>
    <s:alias val="$_MUX_"/>
    <path d="M0,0 L20,10 L20,30 L0,40 Z"/>
    <g s:x="0" s:y="10" s:pid="A"/>
    <g s:x="0" s:y="30" s:pid="B"/>
    <g s:x="10" s:y="35" s:pid="S"/>
    <g s:x="20" s:y="20" s:pid="Y"/>
  </g>
  <g s:type="mux" transform="translate(439.6666666666667,22)" s:width="20" s:height="40">
    <s:alias val="$pmux"/>
    <s:alias val="$mux"/>
    <s:alias val="$_MUX_"/>
    <path d="M0,0 L20,10 L20,30 L0,40 Z"/>
    <g s:x="0" s:y="10" s:pid="A"/>
    <g s:x="0" s:y="30" s:pid="B"/>
    <g s:x="10" s:y="35" s:pid="S"/>
    <g s:x="20" s:y="20" s:pid="Y"/>
  </g>
  <g s:type="mux" transform="translate(209.33333333333334,200)" s:width="20" s:height="40">
    <s:alias val="$pmux"/>
    <s:alias val="$mux"/>
    <s:alias val="$_MUX_"/>
    <path d="M0,0 L20,10 L20,30 L0,40 Z"/>
    <g s:x="0" s:y="10" s:pid="A"/>
    <g s:x="0" s:y="30" s:pid="B"/>
    <g s:x="10" s:y="35" s:pid="S"/>
    <g s:x="20" s:y="20" s:pid="Y"/>
  </g>
  <g s:type="mux" transform="translate(288.6666666666667,295)" s:width="20" s:height="40">
    <s:alias val="$pmux"/>
    <s:alias val="$mux"/>
    <s:alias val="$_MUX_"/>
    <path d="M0,0 L20,10 L20,30 L0,40 Z"/>
    <g s:x="0" s:y="10" s:pid="A"/>
    <g s:x="0" s:y="30" s:pid="B"/>
    <g s:x="10" s:y="35" s:pid="S"/>
    <g s:x="20" s:y="20" s:pid="Y"/>
  </g>
  <g s:type="reduce_xor" transform="translate(431,215)" s:width="33" s:height="25">
    <s:alias val="$xor"/>
    <s:alias val="$reduce_xor"/>
    <s:alias val="$_XOR_"/>
    <path d="M3,0 A30 25 0 0 1 3,25 A30 25 0 0 0 33,12.5 A30 25 0 0 0 3,0"/>
    <path d="M0,0 A30 25 0 0 1 0,25"/>
    <g s:x="3" s:y="5" s:pid="A"/>
    <g s:x="3" s:y="20" s:pid="B"/>
    <g s:x="33" s:y="12.5" s:pid="Y"/>
  </g>
  <line x1="529" y1="227.5" x2="564" y2="227.5"/>
  <line x1="389.25" y1="315" x2="564" y2="315"/>
  <line x1="389.25" y1="315" x2="406" y2="315"/>
  <line x1="406" y1="315" x2="406" y2="355"/>
  <line x1="406" y1="355" x2="252" y2="355"/>
  <line x1="252" y1="355" x2="252" y2="325"/>
  <line x1="252" y1="325" x2="288.6666666666667" y2="325"/>
  <line x1="389.25" y1="315" x2="406" y2="315"/>
  <line x1="406" y1="315" x2="406" y2="235"/>
  <circle cx="406" cy="315" r="2" style="fill:#000"/>
  <line x1="406" y1="235" x2="434" y2="235"/>
  <line x1="529" y1="42" x2="564" y2="42"/>
  <line x1="529" y1="42" x2="539" y2="42"/>
  <line x1="539" y1="42" x2="539" y2="12"/>
  <line x1="539" y1="12" x2="406" y2="12"/>
  <line x1="406" y1="12" x2="406" y2="32"/>
  <circle cx="539" cy="42" r="2" style="fill:#000"/>
  <line x1="406" y1="32" x2="439.6666666666667" y2="32"/>
  <line x1="40" y1="210" x2="61" y2="210"/>
  <line x1="61" y1="210" x2="61" y2="235.5"/>
  <circle cx="61" cy="210" r="2" style="fill:#000"/>
  <line x1="61" y1="235.5" x2="93" y2="235.5"/>
  <line x1="40" y1="210" x2="209.33333333333334" y2="210"/>
  <line x1="305" y1="250" x2="474" y2="250"/>
  <line x1="474" y1="250" x2="474" y2="247.5"/>
  <line x1="474" y1="247.5" x2="499" y2="247.5"/>
  <line x1="305" y1="250" x2="332" y2="250"/>
  <line x1="332" y1="250" x2="332" y2="335"/>
  <circle cx="332" cy="250" r="2" style="fill:#000"/>
  <line x1="332" y1="335" x2="359.25" y2="335"/>
  <line x1="305" y1="250" x2="332" y2="250"/>
  <line x1="332" y1="250" x2="332" y2="204"/>
  <line x1="332" y1="204" x2="474" y2="204"/>
  <line x1="474" y1="204" x2="474" y2="62"/>
  <line x1="474" y1="62" x2="499" y2="62"/>
  <line x1="464" y1="227.5" x2="499" y2="227.5"/>
  <line x1="308.6666666666667" y1="315" x2="359.25" y2="315"/>
  <line x1="459.6666666666667" y1="42" x2="499" y2="42"/>
  <line x1="305" y1="42" x2="363.3333333333333" y2="42"/>
  <line x1="305" y1="101" x2="332" y2="101"/>
  <line x1="332" y1="101" x2="332" y2="62"/>
  <line x1="332" y1="62" x2="363.3333333333333" y2="62"/>
  <line x1="305" y1="160" x2="373.3333333333333" y2="160"/>
  <line x1="373.3333333333333" y1="160" x2="373.3333333333333" y2="67"/>
  <line x1="383.3333333333333" y1="52" x2="439.6666666666667" y2="52"/>
  <line x1="385" y1="184" x2="449.6666666666667" y2="184"/>
  <line x1="449.6666666666667" y1="184" x2="449.6666666666667" y2="57"/>
  <line x1="124" y1="235.5" x2="178" y2="235.5"/>
  <line x1="178" y1="235.5" x2="178" y2="230"/>
  <line x1="178" y1="230" x2="209.33333333333334" y2="230"/>
  <line x1="121" y1="297" x2="219.33333333333334" y2="297"/>
  <line x1="219.33333333333334" y1="297" x2="219.33333333333334" y2="235"/>
  <line x1="229.33333333333334" y1="220" x2="252" y2="220"/>
  <line x1="252" y1="220" x2="252" y2="305"/>
  <circle cx="252" cy="220" r="2" style="fill:#000"/>
  <line x1="252" y1="305" x2="288.6666666666667" y2="305"/>
  <line x1="229.33333333333334" y1="220" x2="434" y2="220"/>
  <line x1="231" y1="365" x2="298.6666666666667" y2="365"/>
  <line x1="298.6666666666667" y1="365" x2="298.6666666666667" y2="330"/>
</svg>
